<?xml version="1.0" encoding="utf-8"?>
<!-- Generator: Adobe Illustrator 19.1.0, SVG Export Plug-In . SVG Version: 6.00 Build 0)  -->
<!DOCTYPE svg PUBLIC "-//W3C//DTD SVG 1.1//EN" "http://www.w3.org/Graphics/SVG/1.1/DTD/svg11.dtd">
<svg version="1.1" id="Layer_1" xmlns="http://www.w3.org/2000/svg" xmlns:xlink="http://www.w3.org/1999/xlink" x="0px" y="0px"
	 width="57.7px" height="46.9px" viewBox="0 0 57.7 46.9" style="enable-background:new 0 0 57.7 46.9;" xml:space="preserve">
<style type="text/css">
	.st0{fill:#F6FFE0;}
</style>
<g>
	<path class="st0" d="M30.1,21.8L30.1,21.8C30.1,21.8,30.1,21.8,30.1,21.8L30.1,21.8z"/>
	<path class="st0" d="M42.8,7H14.9c-1.3,0-2.4,1.1-2.4,2.4v28.2c0,1.3,1.1,2.4,2.4,2.4h27.8c1.3,0,2.4-1.1,2.4-2.4V9.4
		C45.2,8.1,44.1,7,42.8,7z M22.4,34.5h-4.9V19.7h4.9V34.5z M20,17.7L20,17.7c-1.7,0-2.8-1.1-2.8-2.6c0-1.5,1.1-2.6,2.8-2.6
		c1.7,0,2.7,1.1,2.8,2.6C22.8,16.5,21.7,17.7,20,17.7z M40.2,34.5h-4.9v-7.9c0-2-0.7-3.4-2.5-3.4c-1.4,0-2.2,0.9-2.5,1.8
		c-0.1,0.3-0.2,0.8-0.2,1.2v8.3h-4.9c0,0,0.1-13.5,0-14.8h4.9v2.1c0.7-1,1.8-2.5,4.4-2.5c3.2,0,5.7,2.1,5.7,6.7V34.5z"/>
</g>
<g>
</g>
<g>
</g>
<g>
</g>
<g>
</g>
<g>
</g>
<g>
</g>
</svg>
