<?xml version="1.0" encoding="utf-8"?>
<!-- Generator: Adobe Illustrator 19.1.0, SVG Export Plug-In . SVG Version: 6.00 Build 0)  -->
<!DOCTYPE svg PUBLIC "-//W3C//DTD SVG 1.1//EN" "http://www.w3.org/Graphics/SVG/1.1/DTD/svg11.dtd">
<svg version="1.1" id="Layer_1" xmlns="http://www.w3.org/2000/svg" xmlns:xlink="http://www.w3.org/1999/xlink" x="0px" y="0px"
	 width="57.7px" height="46.9px" viewBox="0 0 57.7 46.9" style="enable-background:new 0 0 57.7 46.9;" xml:space="preserve">
<style type="text/css">
	.st0{fill:#F6FFE0;}
</style>
<path class="st0" d="M45.1,13.4c-1.2,0.5-2.5,0.9-3.8,1.1c1.4-0.8,2.4-2.1,2.9-3.7C43,11.5,41.5,12,40,12.3c-1.2-1.3-3-2.1-4.9-2.1
	c-3.7,0-6.7,3-6.7,6.7c0,0.5,0.1,1,0.2,1.5c-5.6-0.3-10.5-2.9-13.8-7c-0.6,1-0.9,2.1-0.9,3.4c0,2.3,1.2,4.4,3,5.6
	c-1.1,0-2.1-0.3-3-0.8c0,0,0,0.1,0,0.1c0,3.2,2.3,5.9,5.4,6.6c-0.6,0.2-1.2,0.2-1.8,0.2c-0.4,0-0.8,0-1.3-0.1
	c0.9,2.7,3.3,4.6,6.2,4.6c-2.3,1.8-5.2,2.9-8.3,2.9c-0.5,0-1.1,0-1.6-0.1c3,1.9,6.5,3,10.2,3c12.3,0,19-10.2,19-19
	c0-0.3,0-0.6,0-0.9C43.1,15.9,44.3,14.7,45.1,13.4z"/>
<g>
</g>
<g>
</g>
<g>
</g>
<g>
</g>
<g>
</g>
<g>
</g>
</svg>
